<svg xmlns="http://www.w3.org/2000/svg" viewBox="0 0 27 27">
<!-- The learned transition matrix of a character-bigram name model: row = current letter, column = P(next letter). Generated by scripts/generate-favicon.mjs -->
<clipPath id="r"><rect width="27" height="27" rx="3.5"/></clipPath>
<g clip-path="url(#r)">
<rect width="27" height="27" fill="#0b0d0c"/>
<rect x="1" y="0" width="1" height="1" fill="#d9a13b" opacity="1.00"/>
<rect x="3" y="0" width="1" height="1" fill="#d9a13b" opacity="0.58"/>
<rect x="5" y="0" width="1" height="1" fill="#d9a13b" opacity="0.63"/>
<rect x="7" y="0" width="1" height="1" fill="#d9a13b" opacity="0.53"/>
<rect x="8" y="0" width="1" height="1" fill="#d9a13b" opacity="0.50"/>
<rect x="9" y="0" width="1" height="1" fill="#d9a13b" opacity="0.51"/>
<rect x="12" y="0" width="1" height="1" fill="#d9a13b" opacity="0.57"/>
<rect x="13" y="0" width="1" height="1" fill="#d9a13b" opacity="0.51"/>
<rect x="16" y="0" width="1" height="1" fill="#d9a13b" opacity="0.54"/>
<rect x="19" y="0" width="1" height="1" fill="#d9a13b" opacity="0.70"/>
<rect x="22" y="0" width="1" height="1" fill="#d9a13b" opacity="0.44"/>
<rect x="0" y="1" width="1" height="1" fill="#d9a13b" opacity="1.00"/>
<rect x="2" y="1" width="1" height="1" fill="#d9a13b" opacity="0.41"/>
<rect x="4" y="1" width="1" height="1" fill="#d9a13b" opacity="0.42"/>
<rect x="18" y="1" width="1" height="1" fill="#d9a13b" opacity="0.45"/>
<rect x="5" y="2" width="1" height="1" fill="#d9a13b" opacity="0.55"/>
<rect x="9" y="2" width="1" height="1" fill="#d9a13b" opacity="0.52"/>
<rect x="18" y="2" width="1" height="1" fill="#d9a13b" opacity="1.00"/>
<rect x="25" y="2" width="1" height="1" fill="#d9a13b" opacity="0.64"/>
<rect x="1" y="3" width="1" height="1" fill="#d9a13b" opacity="1.00"/>
<rect x="5" y="3" width="1" height="1" fill="#d9a13b" opacity="0.85"/>
<rect x="8" y="3" width="1" height="1" fill="#d9a13b" opacity="0.72"/>
<rect x="12" y="3" width="1" height="1" fill="#d9a13b" opacity="0.68"/>
<rect x="15" y="3" width="1" height="1" fill="#d9a13b" opacity="0.74"/>
<rect x="20" y="3" width="1" height="1" fill="#d9a13b" opacity="0.70"/>
<rect x="25" y="3" width="1" height="1" fill="#d9a13b" opacity="0.70"/>
<rect x="4" y="4" width="1" height="1" fill="#d9a13b" opacity="0.65"/>
<rect x="5" y="4" width="1" height="1" fill="#d9a13b" opacity="1.00"/>
<rect x="9" y="4" width="1" height="1" fill="#d9a13b" opacity="0.63"/>
<rect x="18" y="4" width="1" height="1" fill="#d9a13b" opacity="0.68"/>
<rect x="25" y="4" width="1" height="1" fill="#d9a13b" opacity="0.58"/>
<rect x="0" y="5" width="1" height="1" fill="#d9a13b" opacity="0.60"/>
<rect x="12" y="5" width="1" height="1" fill="#d9a13b" opacity="1.00"/>
<rect x="18" y="5" width="1" height="1" fill="#d9a13b" opacity="0.48"/>
<rect x="22" y="5" width="1" height="1" fill="#d9a13b" opacity="0.46"/>
<rect x="25" y="5" width="1" height="1" fill="#d9a13b" opacity="0.47"/>
<rect x="9" y="6" width="1" height="1" fill="#d9a13b" opacity="1.00"/>
<rect x="1" y="7" width="1" height="1" fill="#d9a13b" opacity="0.93"/>
<rect x="5" y="7" width="1" height="1" fill="#d9a13b" opacity="1.00"/>
<rect x="9" y="7" width="1" height="1" fill="#d9a13b" opacity="0.61"/>
<rect x="18" y="7" width="1" height="1" fill="#d9a13b" opacity="0.67"/>
<rect x="0" y="8" width="1" height="1" fill="#d9a13b" opacity="1.00"/>
<rect x="1" y="8" width="1" height="1" fill="#d9a13b" opacity="0.67"/>
<rect x="9" y="8" width="1" height="1" fill="#d9a13b" opacity="0.56"/>
<rect x="12" y="8" width="1" height="1" fill="#d9a13b" opacity="0.46"/>
<rect x="0" y="9" width="1" height="1" fill="#d9a13b" opacity="0.43"/>
<rect x="1" y="9" width="1" height="1" fill="#d9a13b" opacity="1.00"/>
<rect x="3" y="9" width="1" height="1" fill="#d9a13b" opacity="0.50"/>
<rect x="5" y="9" width="1" height="1" fill="#d9a13b" opacity="0.82"/>
<rect x="12" y="9" width="1" height="1" fill="#d9a13b" opacity="0.61"/>
<rect x="14" y="9" width="1" height="1" fill="#d9a13b" opacity="0.81"/>
<rect x="15" y="9" width="1" height="1" fill="#d9a13b" opacity="0.43"/>
<rect x="16" y="9" width="1" height="1" fill="#d9a13b" opacity="0.44"/>
<rect x="19" y="9" width="1" height="1" fill="#d9a13b" opacity="0.73"/>
<rect x="20" y="9" width="1" height="1" fill="#d9a13b" opacity="0.44"/>
<rect x="22" y="9" width="1" height="1" fill="#d9a13b" opacity="0.50"/>
<rect x="25" y="9" width="1" height="1" fill="#d9a13b" opacity="0.43"/>
<rect x="15" y="10" width="1" height="1" fill="#d9a13b" opacity="0.77"/>
<rect x="21" y="10" width="1" height="1" fill="#d9a13b" opacity="1.00"/>
<rect x="1" y="11" width="1" height="1" fill="#d9a13b" opacity="0.81"/>
<rect x="5" y="11" width="1" height="1" fill="#d9a13b" opacity="0.97"/>
<rect x="9" y="11" width="1" height="1" fill="#d9a13b" opacity="0.85"/>
<rect x="12" y="11" width="1" height="1" fill="#d9a13b" opacity="0.74"/>
<rect x="25" y="11" width="1" height="1" fill="#d9a13b" opacity="1.00"/>
<rect x="0" y="12" width="1" height="1" fill="#d9a13b" opacity="0.54"/>
<rect x="1" y="12" width="1" height="1" fill="#d9a13b" opacity="0.91"/>
<rect x="5" y="12" width="1" height="1" fill="#d9a13b" opacity="1.00"/>
<rect x="9" y="12" width="1" height="1" fill="#d9a13b" opacity="0.76"/>
<rect x="12" y="12" width="1" height="1" fill="#d9a13b" opacity="0.80"/>
<rect x="15" y="12" width="1" height="1" fill="#d9a13b" opacity="0.56"/>
<rect x="21" y="12" width="1" height="1" fill="#d9a13b" opacity="0.44"/>
<rect x="25" y="12" width="1" height="1" fill="#d9a13b" opacity="0.56"/>
<rect x="1" y="13" width="1" height="1" fill="#d9a13b" opacity="0.86"/>
<rect x="5" y="13" width="1" height="1" fill="#d9a13b" opacity="0.58"/>
<rect x="9" y="13" width="1" height="1" fill="#d9a13b" opacity="1.00"/>
<rect x="13" y="13" width="1" height="1" fill="#d9a13b" opacity="0.51"/>
<rect x="14" y="13" width="1" height="1" fill="#d9a13b" opacity="0.44"/>
<rect x="0" y="14" width="1" height="1" fill="#d9a13b" opacity="0.61"/>
<rect x="1" y="14" width="1" height="1" fill="#d9a13b" opacity="1.00"/>
<rect x="5" y="14" width="1" height="1" fill="#d9a13b" opacity="0.66"/>
<rect x="14" y="14" width="1" height="1" fill="#d9a13b" opacity="0.57"/>
<rect x="15" y="14" width="1" height="1" fill="#d9a13b" opacity="0.55"/>
<rect x="20" y="14" width="1" height="1" fill="#d9a13b" opacity="0.45"/>
<rect x="5" y="15" width="1" height="1" fill="#d9a13b" opacity="0.90"/>
<rect x="6" y="15" width="1" height="1" fill="#d9a13b" opacity="0.61"/>
<rect x="11" y="15" width="1" height="1" fill="#d9a13b" opacity="0.57"/>
<rect x="12" y="15" width="1" height="1" fill="#d9a13b" opacity="0.91"/>
<rect x="13" y="15" width="1" height="1" fill="#d9a13b" opacity="0.56"/>
<rect x="14" y="15" width="1" height="1" fill="#d9a13b" opacity="0.93"/>
<rect x="15" y="15" width="1" height="1" fill="#d9a13b" opacity="0.61"/>
<rect x="16" y="15" width="1" height="1" fill="#d9a13b" opacity="0.62"/>
<rect x="18" y="15" width="1" height="1" fill="#d9a13b" opacity="1.00"/>
<rect x="19" y="15" width="1" height="1" fill="#d9a13b" opacity="0.49"/>
<rect x="20" y="15" width="1" height="1" fill="#d9a13b" opacity="0.54"/>
<rect x="22" y="15" width="1" height="1" fill="#d9a13b" opacity="0.60"/>
<rect x="23" y="15" width="1" height="1" fill="#d9a13b" opacity="0.62"/>
<rect x="1" y="16" width="1" height="1" fill="#d9a13b" opacity="0.47"/>
<rect x="5" y="16" width="1" height="1" fill="#d9a13b" opacity="1.00"/>
<rect x="8" y="16" width="1" height="1" fill="#d9a13b" opacity="0.72"/>
<rect x="9" y="16" width="1" height="1" fill="#d9a13b" opacity="0.56"/>
<rect x="21" y="17" width="1" height="1" fill="#d9a13b" opacity="1.00"/>
<rect x="0" y="18" width="1" height="1" fill="#d9a13b" opacity="0.49"/>
<rect x="1" y="18" width="1" height="1" fill="#d9a13b" opacity="0.68"/>
<rect x="5" y="18" width="1" height="1" fill="#d9a13b" opacity="0.62"/>
<rect x="9" y="18" width="1" height="1" fill="#d9a13b" opacity="1.00"/>
<rect x="12" y="18" width="1" height="1" fill="#d9a13b" opacity="0.70"/>
<rect x="15" y="18" width="1" height="1" fill="#d9a13b" opacity="0.61"/>
<rect x="16" y="18" width="1" height="1" fill="#d9a13b" opacity="0.54"/>
<rect x="25" y="18" width="1" height="1" fill="#d9a13b" opacity="0.47"/>
<rect x="0" y="19" width="1" height="1" fill="#d9a13b" opacity="0.47"/>
<rect x="1" y="19" width="1" height="1" fill="#d9a13b" opacity="0.83"/>
<rect x="3" y="19" width="1" height="1" fill="#d9a13b" opacity="0.57"/>
<rect x="5" y="19" width="1" height="1" fill="#d9a13b" opacity="0.42"/>
<rect x="9" y="19" width="1" height="1" fill="#d9a13b" opacity="0.48"/>
<rect x="11" y="19" width="1" height="1" fill="#d9a13b" opacity="0.42"/>
<rect x="12" y="19" width="1" height="1" fill="#d9a13b" opacity="0.66"/>
<rect x="15" y="19" width="1" height="1" fill="#d9a13b" opacity="1.00"/>
<rect x="20" y="19" width="1" height="1" fill="#d9a13b" opacity="0.44"/>
<rect x="0" y="20" width="1" height="1" fill="#d9a13b" opacity="0.77"/>
<rect x="1" y="20" width="1" height="1" fill="#d9a13b" opacity="0.60"/>
<rect x="5" y="20" width="1" height="1" fill="#d9a13b" opacity="0.81"/>
<rect x="8" y="20" width="1" height="1" fill="#d9a13b" opacity="1.00"/>
<rect x="9" y="20" width="1" height="1" fill="#d9a13b" opacity="0.64"/>
<rect x="15" y="20" width="1" height="1" fill="#d9a13b" opacity="0.61"/>
<rect x="20" y="20" width="1" height="1" fill="#d9a13b" opacity="0.99"/>
<rect x="21" y="20" width="1" height="1" fill="#d9a13b" opacity="0.48"/>
<rect x="25" y="20" width="1" height="1" fill="#d9a13b" opacity="0.55"/>
<rect x="2" y="21" width="1" height="1" fill="#d9a13b" opacity="0.83"/>
<rect x="3" y="21" width="1" height="1" fill="#d9a13b" opacity="0.65"/>
<rect x="4" y="21" width="1" height="1" fill="#d9a13b" opacity="0.71"/>
<rect x="9" y="21" width="1" height="1" fill="#d9a13b" opacity="0.63"/>
<rect x="12" y="21" width="1" height="1" fill="#d9a13b" opacity="0.71"/>
<rect x="13" y="21" width="1" height="1" fill="#d9a13b" opacity="0.57"/>
<rect x="14" y="21" width="1" height="1" fill="#d9a13b" opacity="0.81"/>
<rect x="18" y="21" width="1" height="1" fill="#d9a13b" opacity="1.00"/>
<rect x="20" y="21" width="1" height="1" fill="#d9a13b" opacity="0.80"/>
<rect x="1" y="22" width="1" height="1" fill="#d9a13b" opacity="0.84"/>
<rect x="5" y="22" width="1" height="1" fill="#d9a13b" opacity="0.54"/>
<rect x="9" y="22" width="1" height="1" fill="#d9a13b" opacity="1.00"/>
<rect x="25" y="22" width="1" height="1" fill="#d9a13b" opacity="0.41"/>
<rect x="0" y="23" width="1" height="1" fill="#d9a13b" opacity="1.00"/>
<rect x="9" y="23" width="1" height="1" fill="#d9a13b" opacity="0.81"/>
<rect x="1" y="24" width="1" height="1" fill="#d9a13b" opacity="1.00"/>
<rect x="0" y="25" width="1" height="1" fill="#d9a13b" opacity="1.00"/>
<rect x="1" y="26" width="1" height="1" fill="#d9a13b" opacity="0.90"/>
<rect x="5" y="26" width="1" height="1" fill="#d9a13b" opacity="0.71"/>
<rect x="15" y="26" width="1" height="1" fill="#d9a13b" opacity="1.00"/>
</g>
</svg>
